<?xml version="1.0" encoding="iso-8859-1"?>
<!-- Uploaded to: SVG Repo, www.svgrepo.com, Generator: SVG Repo Mixer Tools -->
<svg version="1.1" id="Layer_1" xmlns="http://www.w3.org/2000/svg" xmlns:xlink="http://www.w3.org/1999/xlink" 
	 viewBox="0 0 512 512" xml:space="preserve">
<g>
	<circle style="fill:#F4B2B0;" cx="256" cy="256" r="55.351"/>
	<rect x="13.838" y="103.784" style="fill:#F4B2B0;" width="76.108" height="304.432"/>
	<rect x="422.054" y="103.784" style="fill:#F4B2B0;" width="76.108" height="304.432"/>
</g>
<path style="fill:#B3404A;" d="M498.162,89.946h-76.108h-69.189c-7.641,0-13.838,6.197-13.838,13.838s6.197,13.838,13.838,13.838
	h55.351v70.228c-32.962,5.17-58.26,33.759-58.26,68.15s25.298,62.98,58.26,68.15v70.228H269.838v-70.581
	c31.543-6.429,55.351-34.383,55.351-67.797s-23.808-61.368-55.351-67.797v-84.419c0-7.641-6.197-13.838-13.838-13.838H89.946H13.838
	C6.195,89.946,0,96.143,0,103.784v304.432c0,7.641,6.195,13.838,13.838,13.838h76.108h332.108h76.108
	c7.641,0,13.838-6.197,13.838-13.838V103.784C512,96.143,505.803,89.946,498.162,89.946z M377.632,256
	c0-19.069,12.991-35.155,30.584-39.892v79.783C390.623,291.155,377.632,275.069,377.632,256z M103.784,216.108
	c17.593,4.737,30.584,20.823,30.584,39.892s-12.991,35.155-30.584,39.892V216.108z M103.784,324.151
	c32.963-5.17,58.26-33.759,58.26-68.151s-25.297-62.98-58.26-68.151v-70.227h138.378v70.581
	c-31.543,6.429-55.351,34.383-55.351,67.797s23.808,61.368,55.351,67.797v70.581H103.784V324.151z M242.162,295.133
	c-16.106-5.712-27.676-21.094-27.676-39.133s11.57-33.421,27.676-39.133V295.133z M297.514,256c0,18.039-11.57,33.421-27.676,39.133
	v-78.267C285.944,222.579,297.514,237.961,297.514,256z M27.676,394.378V117.622h48.432v276.757H27.676z M484.324,394.378h-48.432
	V117.622h48.432V394.378z"/>
</svg>